<?xml version="1.0" encoding="utf-8"?>
<!-- Generator: Adobe Illustrator 16.0.3, SVG Export Plug-In . SVG Version: 6.00 Build 0)  -->
<!DOCTYPE svg PUBLIC "-//W3C//DTD SVG 1.1//EN" "http://www.w3.org/Graphics/SVG/1.1/DTD/svg11.dtd">
<svg version="1.1" id="Layer_1" xmlns="http://www.w3.org/2000/svg" xmlns:xlink="http://www.w3.org/1999/xlink" x="0px" y="0px"
	 width="516.125px" height="375.064px" viewBox="0 0 516.125 375.064" enable-background="new 0 0 516.125 375.064"
	 xml:space="preserve">
<path fill="#004B85" d="M13.243,300.251h5.185l-1.516,14.598h-5.185L13.243,300.251z M14.599,337.025h7.179l1.675-15.954h4.069
	l0.638-6.223h-4.068l1.515-14.598h4.069l0.638-6.223h-4.069l1.356-12.843h-7.179l-1.356,12.843h-5.185l1.356-12.843h-7.18
	l-1.356,12.843H2.713l-0.638,6.223h3.988l-1.515,14.598H0.639L0,321.071h3.91l-1.676,15.954h7.179l1.676-15.954h5.185
	L14.599,337.025z"/>
<path fill="#009EDA" d="M292.125,337.025h8.773v-18.507l11.09-37.333h-8.376l-6.622,25.447h-0.159l-6.621-25.447h-9.174
	l11.089,37.333V337.025z M252.079,281.186h-12.205v55.84h7.658v-39.487h0.16l6.382,39.487h8.296l5.902-40.045h0.16v40.045h8.296
	v-55.84h-12.205l-5.902,39.646h-0.16L252.079,281.186z M219.213,291.077h0.16l4.148,28.239h-8.455L219.213,291.077z
	 M226.154,281.186H213.31l-8.934,55.84h8.057l1.515-10.131h10.77l1.515,10.131h8.855L226.154,281.186z M190.735,337.025h8.774
	v-55.84h-8.774V337.025z M174.621,337.025h9.014v-55.84h-7.817v33.424h-0.16l-8.854-33.424h-11.009v55.84h7.897v-40.444h0.16
	L174.621,337.025z M134.496,289.162h15.156v-7.977h-23.931v55.84h23.931v-7.978h-15.156v-16.353h12.046v-7.978h-12.046V289.162z
	 M109.767,337.025h8.775v-55.84h-8.775V337.025z M77.938,281.186H65.733v55.84h7.658v-39.487h0.159l6.382,39.487h8.297l5.902-40.045
	h0.16v40.045h8.296v-55.84H90.382l-5.903,39.646H84.32L77.938,281.186z M34.941,281.186v7.977h15.875l-16.673,40.046v7.817H59.83
	v-7.978H43.157l16.673-40.045v-7.817H34.941z"/>
<g>
	<path fill="#004B85" d="M500.969,289.162h15.156v-7.977h-23.933v55.84h23.933v-7.978h-15.156v-16.353h12.045v-7.978h-12.045
		V289.162z M477.755,316.205v7.978c0,1.329-0.188,2.38-0.559,3.178c-0.372,0.797-0.891,1.369-1.569,1.729
		c-0.678,0.358-1.488,0.531-2.419,0.518c-0.932,0.014-1.742-0.159-2.42-0.518c-0.68-0.359-1.197-0.932-1.569-1.729
		c-0.372-0.798-0.558-1.849-0.558-3.178v-30.154c0.013-1.98,0.425-3.391,1.223-4.254c0.812-0.852,1.915-1.276,3.324-1.25
		c1.409-0.026,2.513,0.398,3.323,1.25c0.798,0.863,1.21,2.273,1.224,4.254v5.983h8.296v-5.424c0-2.992-0.491-5.532-1.476-7.619
		c-0.983-2.088-2.446-3.67-4.388-4.773c-1.94-1.09-4.347-1.635-7.219-1.648c-2.872,0.014-5.278,0.559-7.22,1.648
		c-1.941,1.104-3.403,2.686-4.388,4.773c-0.983,2.087-1.476,4.627-1.476,7.619v29.036c0,2.991,0.492,5.518,1.476,7.604
		c0.984,2.088,2.446,3.683,4.388,4.786c1.941,1.091,4.348,1.636,7.22,1.649c2.872-0.014,5.278-0.559,7.219-1.649
		c1.941-1.104,3.404-2.698,4.388-4.786c0.984-2.087,1.476-4.613,1.476-7.604v-7.419H477.755z M440.74,289.162
		c1.543-0.013,2.686,0.452,3.404,1.369c0.718,0.932,1.076,2.394,1.063,4.375v5.504c0,1.476-0.213,2.646-0.639,3.511
		c-0.425,0.863-1.023,1.488-1.808,1.86c-0.784,0.359-1.729,0.546-2.819,0.532h-3.43v-17.151H440.74z M455.02,337.025
		c-0.425-1.023-0.691-2.074-0.811-3.15c-0.106-1.077-0.159-2.286-0.146-3.63v-8.615c0.014-1.941-0.173-3.696-0.531-5.238
		c-0.373-1.556-0.984-2.886-1.835-3.989c-0.852-1.104-2.008-1.968-3.457-2.579v-0.159c1.953-0.918,3.39-2.301,4.334-4.162
		c0.944-1.86,1.409-4.214,1.409-7.086v-4.388c0.014-2.871-0.438-5.265-1.355-7.166c-0.904-1.901-2.313-3.324-4.229-4.268
		c-1.928-0.944-4.4-1.409-7.419-1.409h-13.242v55.84h8.775v-22.734h3.031c1.33-0.014,2.42,0.226,3.258,0.691
		c0.85,0.465,1.475,1.223,1.888,2.26c0.398,1.051,0.599,2.434,0.599,4.148v8.774c0,1.132,0.026,2.061,0.053,2.792
		c0.04,0.731,0.093,1.33,0.173,1.809c0.066,0.465,0.146,0.877,0.253,1.223c0.092,0.346,0.199,0.691,0.318,1.037H455.02z
		 M394.632,323.624c0,2.991,0.518,5.518,1.543,7.604c1.023,2.088,2.513,3.683,4.493,4.786c1.981,1.091,4.415,1.636,7.286,1.649
		c2.872-0.014,5.305-0.559,7.286-1.649c1.98-1.104,3.47-2.698,4.493-4.786c1.024-2.087,1.543-4.613,1.543-7.604v-29.036
		c0-2.992-0.519-5.532-1.543-7.619c-1.023-2.088-2.513-3.67-4.493-4.773c-1.981-1.09-4.414-1.635-7.286-1.648
		c-2.871,0.014-5.305,0.559-7.286,1.648c-1.98,1.104-3.47,2.686-4.493,4.773c-1.025,2.087-1.543,4.627-1.543,7.619V323.624z
		 M403.407,294.028c0.014-1.98,0.426-3.391,1.223-4.254c0.813-0.852,1.915-1.276,3.324-1.25c1.409-0.026,2.513,0.398,3.324,1.25
		c0.798,0.863,1.21,2.273,1.223,4.254v30.154c-0.013,1.98-0.425,3.39-1.223,4.254c-0.812,0.852-1.915,1.277-3.324,1.25
		c-1.409,0.027-2.512-0.398-3.324-1.25c-0.797-0.864-1.209-2.273-1.223-4.254V294.028z M372.296,337.025h11.646l6.223-55.84h-7.658
		l-4.467,44.353h-0.16l-4.308-44.353h-8.455l-4.148,44.034h-0.16l-4.626-44.034h-8.536l6.223,55.84h12.045l3.11-29.755h0.161
		L372.296,337.025z M330.017,289.162c0.931-0.013,1.729,0.16,2.407,0.519c0.664,0.359,1.17,0.931,1.528,1.729
		c0.346,0.798,0.531,1.848,0.531,3.179v29.036c0,1.329-0.186,2.381-0.531,3.178c-0.358,0.798-0.864,1.37-1.528,1.729
		c-0.679,0.358-1.477,0.531-2.407,0.518h-4.945v-39.886H330.017z M316.296,337.025h13.881c4.387-0.013,7.658-1.196,9.839-3.55
		c2.167-2.354,3.243-5.77,3.243-10.25v-28.24c0-4.48-1.076-7.897-3.243-10.25c-2.181-2.354-5.452-3.537-9.839-3.55h-13.881V337.025z
		"/>
	<path fill="#004B85" d="M424.358,354.244h2.554l1.179,10.263c0.114,0.999,0.172,1.907,0.172,2.726v0.344
		c0.049-0.966,0.122-2.104,0.221-3.413l1.326-9.919h2.283l1.424,10.263c0.113,0.818,0.172,1.842,0.172,3.069
		c0.049-0.853,0.122-1.988,0.221-3.413l1.104-9.919h2.529l-2.701,17.334h-2.238l-1.469-10.066c-0.114-0.785-0.173-1.809-0.173-3.068
		c-0.098,1.964-0.171,3.102-0.22,3.412l-1.424,9.723h-2.234L424.358,354.244z M417.48,352.624h-1.939l1.153-2.111h3.044
		L417.48,352.624z M417.946,367.748v-9.674c0-1.194-0.458-1.792-1.374-1.792c-0.917,0-1.376,0.598-1.376,1.792v9.674
		c0,1.211,0.459,1.816,1.376,1.816C417.488,369.564,417.946,368.959,417.946,367.748 M412.472,358.247
		c0-1.359,0.367-2.427,1.104-3.204c0.736-0.778,1.768-1.167,3.094-1.167c1.228,0,2.206,0.394,2.934,1.179
		c0.729,0.786,1.093,1.874,1.093,3.266v8.888c0,1.522-0.36,2.692-1.08,3.511c-0.721,0.818-1.736,1.228-3.044,1.228
		c-2.733,0-4.101-1.604-4.101-4.813V358.247z M399.827,367.134v-8.887c0-1.359,0.369-2.427,1.105-3.204
		c0.736-0.778,1.768-1.167,3.094-1.167c1.227,0,2.205,0.394,2.934,1.179c0.729,0.786,1.093,1.874,1.093,3.266v1.669h-2.75v-1.915
		c0-1.194-0.458-1.792-1.375-1.792s-1.375,0.598-1.375,1.792v9.674c0,1.211,0.458,1.816,1.375,1.816s1.375-0.605,1.375-1.816v-2.356
		h2.75v1.816c0,1.522-0.36,2.692-1.081,3.511c-0.72,0.818-1.734,1.228-3.044,1.228C401.194,371.946,399.827,370.343,399.827,367.134
		 M390.105,356.749v5.033h1.056c0.639,0,1.072-0.192,1.3-0.577c0.23-0.385,0.346-1.068,0.346-2.05c0-0.917-0.128-1.547-0.381-1.891
		c-0.255-0.344-0.708-0.516-1.363-0.516H390.105z M390.105,364.286v7.292h-2.676v-17.334h3.928c1.457,0,2.517,0.394,3.18,1.179
		c0.663,0.786,0.994,2.063,0.994,3.83c0,2.046-0.564,3.47-1.695,4.272l1.966,8.053h-2.767l-1.653-7.292H390.105z M379.818,367.748
		v-9.674c0-1.194-0.458-1.792-1.375-1.792c-0.916,0-1.375,0.598-1.375,1.792v9.674c0,1.211,0.459,1.816,1.375,1.816
		C379.36,369.564,379.818,368.959,379.818,367.748 M374.344,358.247c0-1.359,0.367-2.427,1.104-3.204
		c0.736-0.778,1.768-1.167,3.094-1.167c1.228,0,2.205,0.394,2.934,1.179c0.729,0.786,1.093,1.874,1.093,3.266v8.888
		c0,1.522-0.36,2.692-1.081,3.511c-0.72,0.818-1.734,1.228-3.044,1.228c-2.733,0-4.1-1.604-4.1-4.813V358.247z M357.48,354.244
		h2.554l1.177,10.263c0.116,0.999,0.173,1.907,0.173,2.726v0.344c0.05-0.966,0.123-2.104,0.222-3.413l1.325-9.919h2.283
		l1.424,10.263c0.115,0.818,0.173,1.842,0.173,3.069c0.049-0.853,0.122-1.988,0.221-3.413l1.104-9.919h2.529l-2.701,17.334h-2.238
		l-1.469-10.066c-0.114-0.785-0.172-1.809-0.172-3.068c-0.099,1.964-0.172,3.102-0.221,3.412l-1.424,9.723h-2.234L357.48,354.244z
		 M348.344,369.024h1.35c0.934,0,1.399-0.605,1.399-1.816v-8.348c0-1.375-0.713-2.063-2.136-2.063h-0.613V369.024z M345.691,371.578
		v-17.334h3.806c2.881,0,4.321,1.588,4.321,4.764v7.733c0,1.67-0.331,2.893-0.994,3.671c-0.663,0.777-1.731,1.166-3.204,1.166
		H345.691z M327.549,371.578l2.848-17.334h3.486l2.848,17.334h-2.745l-0.544-3.757h-2.697l-0.564,3.757H327.549z M331.084,365.366
		h2.038l-0.925-7.242l-0.172-0.005L331.084,365.366z M319.132,371.578v-2.627h0.539c0.934,0,1.4-0.483,1.4-1.449v-13.258h2.676
		v12.743c0,3.061-1.039,4.591-3.119,4.591H319.132z M307.687,367.134v-8.887c0-1.359,0.368-2.427,1.105-3.204
		c0.736-0.778,1.768-1.167,3.093-1.167c1.228,0,2.206,0.394,2.934,1.179c0.728,0.786,1.093,1.874,1.093,3.266v1.669h-2.749v-1.915
		c0-1.194-0.459-1.792-1.375-1.792c-0.917,0-1.375,0.598-1.375,1.792v9.674c0,1.211,0.458,1.816,1.375,1.816
		c0.916,0,1.375-0.605,1.375-1.816v-2.356h2.749v1.816c0,1.522-0.359,2.692-1.08,3.511c-0.72,0.818-1.734,1.228-3.044,1.228
		C309.054,371.946,307.687,370.343,307.687,367.134 M294.847,371.578l2.848-17.334h3.486l2.848,17.334h-2.745l-0.544-3.757h-2.697
		l-0.564,3.757H294.847z M298.382,365.366h2.039l-0.926-7.242l-0.172-0.005L298.382,365.366z M283.729,371.578v-2.677l4.788-11.98
		h-4.395v-2.677h7.291v2.484l-4.836,12.173h4.836v2.677H283.729z M276.482,354.244h2.725v17.334h-2.725V354.244z M262.782,371.578
		v-17.334h2.414l3.381,10.361c0.163,0.475,0.335,1.088,0.516,1.841c-0.197-1.098-0.295-1.874-0.295-2.332v-9.87h2.504v17.334h-2.504
		l-3.252-9.579c-0.268-0.753-0.46-1.379-0.578-1.887c0.196,1.228,0.295,2.029,0.295,2.406v9.06H262.782z M252.741,356.749v5.033
		h1.055c0.64,0,1.073-0.192,1.303-0.577c0.229-0.385,0.344-1.068,0.344-2.05c0-0.917-0.127-1.547-0.381-1.891
		s-0.708-0.516-1.362-0.516H252.741z M252.741,364.286v7.292h-2.676v-17.334h3.928c1.457,0,2.517,0.394,3.18,1.179
		c0.663,0.786,0.994,2.063,0.994,3.83c0,2.046-0.564,3.47-1.694,4.272l1.965,8.053h-2.767l-1.653-7.292H252.741z M238.6,371.578
		v-17.334h6.973v2.505h-4.297v4.542h3.094v2.504h-3.094v5.181h4.297v2.603H238.6z M228.239,369.024h1.35
		c0.933,0,1.4-0.605,1.4-1.816v-8.348c0-1.375-0.713-2.063-2.136-2.063h-0.614V369.024z M225.587,371.578v-17.334h3.806
		c2.881,0,4.321,1.588,4.321,4.764v7.733c0,1.67-0.332,2.893-0.995,3.671c-0.662,0.777-1.73,1.166-3.203,1.166H225.587z
		 M217.952,367.748v-9.674c0-1.194-0.459-1.792-1.375-1.792c-0.917,0-1.375,0.598-1.375,1.792v9.674
		c0,1.211,0.458,1.816,1.375,1.816C217.493,369.564,217.952,368.959,217.952,367.748 M212.478,358.247
		c0-1.359,0.368-2.427,1.105-3.204c0.736-0.778,1.767-1.167,3.093-1.167c1.228,0,2.205,0.394,2.934,1.179
		c0.728,0.786,1.092,1.874,1.092,3.266v8.888c0,1.522-0.36,2.692-1.08,3.511c-0.72,0.818-1.735,1.228-3.044,1.228
		c-2.734,0-4.1-1.604-4.1-4.813V358.247z M196.567,371.578v-17.334h3.561l1.743,9.6c0.151,0.818,0.225,1.687,0.225,2.603
		c0-0.769,0.086-1.628,0.249-2.577l1.662-9.625h3.609v17.334h-2.505v-10.95c0-0.654,0.066-1.661,0.197-3.02l-0.417,2.455
		l-2.185,11.515h-1.327l-2.09-11.515c-0.111-0.753-0.25-1.571-0.413-2.455c0.114,1.211,0.171,2.218,0.171,3.02v10.95H196.567z
		 M178.424,371.578l2.848-17.334h3.487l2.848,17.334h-2.746l-0.545-3.757h-2.696l-0.565,3.757H178.424z M181.96,365.366h2.038
		l-0.925-7.242l-0.172-0.005L181.96,365.366z M167.308,371.578v-2.677l4.787-11.98h-4.395v-2.677h7.292v2.484l-4.837,12.173h4.837
		v2.677H167.308z M155.027,367.182l2.554-0.392c0.097,1.719,0.687,2.578,1.767,2.578c0.491,0,0.888-0.151,1.191-0.454
		c0.302-0.303,0.454-0.708,0.454-1.216c0-0.654-0.221-1.284-0.663-1.89c-0.245-0.328-0.827-0.949-1.743-1.866
		c-1.179-1.179-1.972-2.078-2.382-2.7c-0.621-0.934-0.932-1.915-0.932-2.946c0-1.244,0.404-2.279,1.214-3.106
		c0.811-0.826,1.789-1.239,2.935-1.239c1.113,0,2.033,0.38,2.762,1.142c0.728,0.761,1.141,1.813,1.239,3.155l-2.602,0.368
		c-0.098-1.44-0.589-2.161-1.473-2.161c-0.426,0-0.769,0.144-1.031,0.43s-0.393,0.676-0.393,1.166c0,0.704,0.254,1.399,0.761,2.087
		c0.295,0.394,0.933,1.064,1.915,2.014c1.064,1.031,1.793,1.874,2.185,2.528c0.54,0.868,0.81,1.858,0.81,2.971
		c0,1.261-0.392,2.296-1.178,3.105c-0.786,0.811-1.776,1.216-2.971,1.216c-1.309,0-2.357-0.421-3.142-1.265
		C155.519,369.863,155.092,368.689,155.027,367.182 M143.316,371.578v-17.334h2.676v7.316c0.147-0.54,0.27-0.916,0.368-1.129
		l2.652-6.188h2.651l-2.971,5.917l3.315,11.417h-2.782l-2.251-8.716l-0.982,1.964v6.752H143.316z M137.595,371.578
		c-0.294,0.507-0.449,0.949-0.466,1.325c-0.016,0.41,0.119,0.663,0.405,0.762c0.286,0.098,0.479,0.147,0.577,0.147
		c0.163,0,0.401-0.05,0.712-0.147v1.301c-0.376,0.065-0.72,0.099-1.031,0.099c-0.557,0-1.023-0.131-1.399-0.393
		c-0.459-0.295-0.688-0.704-0.688-1.228c0-0.476,0.27-1.097,0.81-1.866h-4.689v-17.334h6.997v2.505h-4.321v4.542h3.093v2.504h-3.093
		v5.181h4.321v2.603H137.595z M123.969,354.244h2.725v17.334h-2.725V354.244z M106.789,354.244h2.553l1.178,10.263
		c0.115,0.999,0.172,1.907,0.172,2.726v0.344c0.049-0.966,0.123-2.104,0.221-3.413l1.326-9.919h2.283l1.424,10.263
		c0.115,0.818,0.172,1.842,0.172,3.069c0.049-0.853,0.123-1.988,0.221-3.413l1.105-9.919h2.529l-2.701,17.334h-2.238l-1.469-10.066
		c-0.115-0.785-0.172-1.809-0.172-3.068c-0.098,1.964-0.172,3.102-0.221,3.412l-1.424,9.723h-2.234L106.789,354.244z
		 M98.367,371.578v-2.627h0.54c0.932,0,1.399-0.483,1.399-1.449v-13.258h2.676v12.743c0,3.061-1.039,4.591-3.118,4.591H98.367z
		 M86.726,371.578l2.848-17.334h3.487l2.847,17.334h-2.745l-0.544-3.757h-2.697l-0.564,3.757H86.726z M90.26,365.366h2.038
		l-0.924-7.242l-0.172-0.005L90.26,365.366z M74.253,371.578v-17.334h2.415l3.379,10.361c0.164,0.475,0.336,1.088,0.516,1.841
		c-0.196-1.098-0.295-1.874-0.295-2.332v-9.87h2.505v17.334h-2.505l-3.253-9.579c-0.266-0.753-0.458-1.379-0.577-1.887
		c0.197,1.228,0.295,2.029,0.295,2.406v9.06H74.253z"/>
	<path fill-rule="evenodd" clip-rule="evenodd" fill="#004B85" d="M274.606,37.841c-14.854-6.953-29.713-13.884-44.585-20.79
		l-0.087-16.614l45.736,26.41l0.086,11.536L274.606,37.841z"/>
	<path fill-rule="evenodd" clip-rule="evenodd" fill="#004B85" d="M274.062,130.867c-7.524-1.261-14.83-2.477-21.939-3.655
		c-7.315-1.212-14.631-2.418-21.951-3.617l-0.814-0.133l-0.004-0.831l-0.151-46.78l-0.004-1.364l1.291,0.438
		c7.601,2.572,14.825,5.012,21.655,7.311c7.221,2.43,14.445,4.856,21.671,7.274v0.001l2.408,0.802l0.665,0.223l0.004,0.703
		l0.148,38.975l0.004,1.156l-1.14-0.193L274.062,130.867z M252.434,125.285c7.523,1.245,14.847,2.464,21.948,3.654l0.704,0.118
		l-0.142-37.114l-1.743-0.581h-0.006c-7.225-2.418-14.448-4.844-21.671-7.274c-7.13-2.401-13.917-4.692-20.367-6.874l0.144,44.587
		C238.348,122.955,245.391,124.118,252.434,125.285"/>
	<path fill-rule="evenodd" clip-rule="evenodd" fill="#004B85" d="M235.499,161.098l-5.046-0.137l-0.115-35.201
		c14.466,2.383,28.932,4.742,43.405,7.074l2.337,0.373l0.108,29.08C262.624,161.867,249.061,161.471,235.499,161.098"/>
	<path fill-rule="evenodd" clip-rule="evenodd" fill="#004B85" d="M228.326,0l-0.028,17.294
		c-10.689,5.387-21.364,10.797-32.036,16.216l-0.074-11.195L228.326,0z"/>
	<path fill-rule="evenodd" clip-rule="evenodd" fill="#004B85" d="M228.706,75.925l-0.072,46.81v0.818l-0.803,0.143
		c-5.249,0.938-10.497,1.881-15.744,2.826c-5.247,0.944-10.494,1.894-15.738,2.846l-1.154,0.21l0.007-1.175l0.244-41.008
		l0.006-0.682l0.638-0.232c6.392-2.32,12.968-4.738,19.59-7.172c3.863-1.421,7.749-2.85,11.715-4.303l1.315-0.48L228.706,75.925z
		 M226.684,121.92l0.071-44.593l-10.404,3.817c-6.165,2.267-12.264,4.512-18.956,6.943l-0.236,39.153
		c4.86-0.883,9.723-1.764,14.585-2.638C216.724,123.706,221.706,122.812,226.684,121.92"/>
	<path fill-rule="evenodd" clip-rule="evenodd" fill="#004B85" d="M228.326,125.431v35.564l-1.143,0.034l-2.74,0.082l-10.971,0.337
		l-16.776,0.539l-0.112-30.959C207.167,129.178,217.747,127.309,228.326,125.431"/>
	<polygon fill-rule="evenodd" clip-rule="evenodd" fill="#004B85" points="224.532,164.188 228.326,164.079 228.326,188.269 
		222.146,187.742 202.964,186.113 196.783,185.586 196.707,164.941 213.563,164.495 	"/>
	<path fill-rule="evenodd" clip-rule="evenodd" fill="#004B85" d="M195.105,69.346v14.856c-3.123,1.156-6.245,2.314-9.366,3.475
		l-10.508,3.9l-10.501,3.916l-1.887,0.707l-0.046-12.428L195.105,69.346z"/>
	<path fill-rule="evenodd" clip-rule="evenodd" fill="#004B85" d="M196.085,132.214v29.825v0.946l-0.949,0.029l-3.568,0.114
		l-4.392,0.148c-5.815,0.193-11.632,0.388-17.535,0.599l-6.512,0.23l-1.005,0.035l-0.004-1.006l-0.099-25.354l-0.003-0.828
		l0.814-0.141l2.427-0.416l10.534-1.816l10.531-1.83l8.616-1.5l1.145-0.199V132.214z M194.126,161.094v-27.718l-7.474,1.301
		l-10.531,1.83l-10.532,1.816l-1.614,0.277l0.091,23.518l5.506-0.194c5.786-0.205,11.666-0.403,17.543-0.599l4.394-0.147
		L194.126,161.094z"/>
	<path fill-rule="evenodd" clip-rule="evenodd" fill="#004B85" d="M191.625,165.075l3.48-0.092v20.463l-4.634-0.394l-22.665-1.925
		l-4.637-0.394l-0.063-16.964l6.581-0.154C177,165.449,184.313,165.259,191.625,165.075"/>
	<path fill-rule="evenodd" clip-rule="evenodd" fill="#004B85" d="M319.585,139.131l5.242,0.82l5.24,0.818l0.83,0.13l-0.003,0.838
		l-0.109,22.346l-0.005,1.008l-1.004-0.038l-6.575-0.235c-4.061-0.143-8.034-0.282-11.956-0.416c-3.987-0.134-7.975-0.27-11.962-0.4
		l-0.949-0.031v-0.945v-26.104v-1.143l1.134,0.179l0.615,0.098C306.701,137.105,313.323,138.154,319.585,139.131 M324.529,141.879
		l-5.242-0.821c-6.563-1.022-12.784-2.009-18.994-2.992v24.018l11.012,0.368c4.052,0.138,8.053,0.277,11.965,0.416l5.571,0.2
		l0.098-20.501L324.529,141.879z"/>
	<path fill-rule="evenodd" clip-rule="evenodd" fill="#004B85" d="M330.075,109.209l-0.147,30.178
		c-3.36-0.583-6.725-1.163-10.087-1.741c-6.841-1.181-13.684-2.344-20.526-3.509V99.039l8.488,2.817l11.439,3.783
		C322.853,106.831,326.464,108.021,330.075,109.209z"/>
	<path fill-rule="evenodd" clip-rule="evenodd" fill="#004B85" d="M118.914,114.946v27.591l0.001,0.54l-0.534,0.101l-7.027,1.335
		v0.001l-7.029,1.343l-0.77,0.148l-0.003-0.788l-0.067-25.275v-0.461l0.434-0.153c4.71-1.661,9.419-3.327,14.126-4.996l0.869-0.31
		V114.946z M117.607,142v-26.129c-4.272,1.516-8.545,3.028-12.821,4.534l0.064,24.025l6.257-1.196h0.003L117.607,142z"/>
	<path fill-rule="evenodd" clip-rule="evenodd" fill="#004B85" d="M118.261,144.428v20.405c-4.669,0.189-9.337,0.383-14.006,0.58
		l-0.049-18.652C108.891,145.987,113.576,145.21,118.261,144.428z"/>
	<path fill-rule="evenodd" clip-rule="evenodd" fill="#004B85" d="M104.258,166.936c4.669-0.075,9.335-0.157,14.002-0.241
		l0.001,12.225l-1.546-0.13l-10.883-0.924l-1.545-0.132L104.258,166.936z"/>
	<path fill-rule="evenodd" clip-rule="evenodd" fill="#004B85" d="M103.137,146.937v18.524c-4.03,0.173-8.063,0.347-12.093,0.526
		l-0.07-17.056L103.137,146.937z"/>
	<path fill-rule="evenodd" clip-rule="evenodd" fill="#004B85" d="M91.048,167.136c4.03-0.058,8.06-0.118,12.089-0.182v10.682
		l-1.234-0.105l-9.58-0.813l-1.236-0.106L91.048,167.136z"/>
	<path fill-rule="evenodd" clip-rule="evenodd" fill="#004B85" d="M369.951,150.511l-0.112,15.108
		c-0.913-0.038-1.827-0.074-2.74-0.112c-5.929-0.242-11.861-0.475-17.791-0.703v-17.547L369.951,150.511z"/>
	<polygon fill-rule="evenodd" clip-rule="evenodd" fill="#004B85" points="161.213,38.229 161.213,60.778 154.096,64.419 
		144.712,69.23 	"/>
	<polygon fill-rule="evenodd" clip-rule="evenodd" fill="#004B85" points="161.213,63.714 161.213,96.807 154.231,99.417 
		144.757,102.966 144.715,71.9 155.238,66.682 	"/>
	<polygon fill-rule="evenodd" clip-rule="evenodd" fill="#004B85" points="161.213,99.596 161.213,134.499 154.446,135.752 
		144.807,137.543 144.762,105.505 155.104,101.795 	"/>
	<path fill-rule="evenodd" clip-rule="evenodd" fill="#004B85" d="M161.213,137.154v26.042l-2.573,0.09l-10.967,0.405
		c-0.942,0.034-1.887,0.07-2.833,0.107l-0.032-23.838l10.082-1.722L161.213,137.154z"/>
	<path fill-rule="evenodd" clip-rule="evenodd" fill="#004B85" d="M331.699,166.435c5.2,0.097,10.397,0.191,15.599,0.279
		l-0.016,11.827l-2.319,0.196l-10.946,0.93l-2.317,0.199V166.435z"/>
	<path fill-rule="evenodd" clip-rule="evenodd" fill="#004B85" d="M331.699,109.742c5.22,1.718,10.443,3.431,15.669,5.14
		l-0.038,27.53c-5.211-0.912-10.422-1.818-15.631-2.72V109.742z"/>
	<path fill-rule="evenodd" clip-rule="evenodd" fill="#004B85" d="M331.699,77.713c5.232,2.384,10.471,4.762,15.709,7.136
		l-0.036,27.942c-5.224-1.824-10.447-3.642-15.673-5.456V77.713z"/>
	<path fill-rule="evenodd" clip-rule="evenodd" fill="#004B85" d="M331.699,42.575v32.627c5.237,2.486,10.478,4.976,15.712,7.471
		L331.699,42.575z"/>
	<path fill-rule="evenodd" clip-rule="evenodd" fill="#004B85" d="M278.839,165.303c5.971,0.143,11.941,0.281,17.912,0.414
		l-0.02,17.117l-4.636,0.394l-8.623,0.731l-4.634,0.394V165.303z"/>
	<path fill-rule="evenodd" clip-rule="evenodd" fill="#004B85" d="M296.585,136.489c0.068,0.01,0.134,0.022,0.2,0.032l-0.03,26.421
		c-5.973-0.197-11.943-0.387-17.916-0.573v-28.721L296.585,136.489z"/>
	<polygon fill-rule="evenodd" clip-rule="evenodd" fill="#004B85" points="296.366,98.06 296.831,98.214 296.79,133.707 
		278.839,130.683 	"/>
	<polygon fill-rule="evenodd" clip-rule="evenodd" fill="#004B85" points="296.227,61.5 296.875,61.796 296.835,95.291 
		278.839,89.127 278.839,53.5 	"/>
	<path fill-rule="evenodd" clip-rule="evenodd" fill="#004B85" d="M142.957,137.888c-7.762,1.452-15.525,2.912-23.286,4.383
		l-0.053-27.806L142.957,137.888z"/>
	<path fill-rule="evenodd" clip-rule="evenodd" fill="#004B85" d="M119.717,166.669c7.749-0.144,15.494-0.295,23.24-0.457v14.806
		l-2.317-0.198l-18.58-1.578l-2.319-0.196L119.717,166.669z"/>
	<polygon fill-rule="evenodd" clip-rule="evenodd" fill="#004B85" points="228.326,187.69 57.346,173.282 228.326,190.606 	"/>
	<polygon fill-rule="evenodd" clip-rule="evenodd" fill="#004B85" points="449.128,224.382 9.559,172.184 431.565,233.618 	"/>
	<polygon fill-rule="evenodd" clip-rule="evenodd" fill="#004B85" points="466.627,256.374 29.394,180.998 439.83,270.47 	"/>
	<path fill-rule="evenodd" clip-rule="evenodd" fill="#004B85" d="M427.084,228.886c-1.223,0.137-5.932,0.105-7.129,0.231
		l-32.094,16.88l-9.769,0.78l9.158,0.826l5.056,0.282L427.084,228.886z"/>
	<path fill-rule="evenodd" clip-rule="evenodd" fill="#004B85" d="M379.167,221.705c-1.172,0.134-5.688,0.104-6.835,0.225
		c-10.253,5.393-20.509,10.787-30.763,16.18c-3.124,0.249-6.246,0.498-9.365,0.75c2.925,0.263,5.851,0.526,8.775,0.79
		c1.617,0.093,3.234,0.182,4.848,0.271C356.94,233.85,368.052,227.779,379.167,221.705"/>
	<path fill-rule="evenodd" clip-rule="evenodd" fill="#004B85" d="M339.958,215.933c-1.122,0.127-5.443,0.098-6.539,0.212
		c-9.813,5.16-19.625,10.323-29.437,15.483c-2.986,0.239-5.973,0.477-8.96,0.716c2.8,0.253,5.598,0.506,8.397,0.76
		c1.545,0.085,3.094,0.17,4.639,0.257C318.692,227.553,329.324,221.743,339.958,215.933"/>
	<path fill-rule="evenodd" clip-rule="evenodd" fill="#004B85" d="M306.727,211.125c-1.07,0.121-5.196,0.092-6.244,0.202
		c-9.369,4.928-18.74,9.857-28.107,14.784c-2.852,0.227-5.706,0.457-8.558,0.685c2.675,0.241,5.346,0.483,8.02,0.724
		c1.476,0.081,2.954,0.164,4.43,0.246C286.418,222.219,296.574,216.672,306.727,211.125"/>
	<path fill-rule="evenodd" clip-rule="evenodd" fill="#004B85" d="M277.85,207.02c-1.019,0.116-4.949,0.09-5.949,0.194
		c-8.927,4.695-17.853,9.391-26.778,14.086c-2.716,0.218-5.435,0.435-8.152,0.652c2.547,0.229,5.094,0.459,7.641,0.689
		c1.405,0.079,2.812,0.157,4.216,0.235C258.503,217.589,268.176,212.305,277.85,207.02"/>
	<path fill-rule="evenodd" clip-rule="evenodd" fill="#004B85" d="M252.291,203.451c-0.969,0.108-4.703,0.083-5.652,0.183
		c-8.483,4.462-16.967,8.924-25.452,13.387c-2.581,0.206-5.164,0.412-7.747,0.62c2.42,0.219,4.841,0.436,7.261,0.655
		c1.337,0.074,2.673,0.148,4.012,0.222C233.905,213.495,243.099,208.474,252.291,203.451"/>
	<path fill-rule="evenodd" clip-rule="evenodd" fill="#004B85" d="M229.345,200.302c-0.919,0.104-4.459,0.082-5.359,0.175
		c-8.04,4.229-16.082,8.46-24.122,12.689c-2.447,0.195-4.897,0.39-7.344,0.586c2.294,0.208,4.587,0.416,6.882,0.622
		c1.267,0.071,2.535,0.141,3.803,0.212C211.917,209.825,220.633,205.064,229.345,200.302"/>
	<path fill-rule="evenodd" clip-rule="evenodd" fill="#004B85" d="M208.507,197.495c-0.868,0.099-4.214,0.076-5.064,0.166
		c-7.599,3.996-15.196,7.993-22.795,11.988c-2.312,0.185-4.626,0.37-6.938,0.556c2.167,0.195,4.335,0.391,6.503,0.586
		c1.197,0.067,2.395,0.134,3.591,0.201C192.038,206.492,200.272,201.995,208.507,197.495"/>
	<path fill-rule="evenodd" clip-rule="evenodd" fill="#004B85" d="M189.406,194.967c-0.819,0.094-3.968,0.071-4.77,0.156
		c-7.155,3.764-14.31,7.526-21.465,11.29c-2.179,0.176-4.356,0.349-6.536,0.523c2.042,0.185,4.083,0.369,6.125,0.553
		c1.127,0.062,2.254,0.125,3.382,0.188C173.897,203.44,181.651,199.204,189.406,194.967"/>
	<path fill-rule="evenodd" clip-rule="evenodd" fill="#004B85" d="M171.763,192.676c-0.767,0.087-3.722,0.066-4.473,0.147
		c-6.713,3.53-13.426,7.061-20.138,10.592c-2.044,0.164-4.087,0.325-6.131,0.49c1.915,0.174,3.83,0.345,5.745,0.519
		c1.059,0.058,2.117,0.118,3.174,0.177C157.214,200.626,164.489,196.652,171.763,192.676"/>
	<path fill-rule="evenodd" clip-rule="evenodd" fill="#004B85" d="M155.36,190.586c-0.716,0.08-3.478,0.062-4.178,0.136
		c-6.271,3.295-12.541,6.594-18.81,9.892c-1.909,0.154-3.818,0.305-5.726,0.458c1.789,0.162,3.577,0.323,5.366,0.487
		c0.989,0.053,1.976,0.108,2.964,0.164C141.771,198.009,148.566,194.297,155.36,190.586"/>
	<path fill-rule="evenodd" clip-rule="evenodd" fill="#004B85" d="M140.027,188.666c-0.667,0.076-3.232,0.059-3.884,0.126
		c-5.827,3.066-11.655,6.13-17.482,9.196c-1.774,0.141-3.548,0.284-5.322,0.426c1.663,0.149,3.326,0.3,4.987,0.449
		c0.919,0.051,1.839,0.102,2.755,0.154C127.398,195.566,133.712,192.117,140.027,188.666"/>
	<path fill-rule="evenodd" clip-rule="evenodd" fill="#004B85" d="M125.622,186.896c-0.615,0.071-2.986,0.054-3.588,0.118
		c-5.385,2.832-10.77,5.665-16.155,8.497c-1.638,0.131-3.278,0.263-4.917,0.393c1.536,0.139,3.072,0.277,4.609,0.416
		c0.849,0.047,1.697,0.094,2.545,0.143C113.953,193.272,119.787,190.085,125.622,186.896z"/>
	<path fill-rule="evenodd" clip-rule="evenodd" fill="#004B85" d="M112.033,185.261c-0.564,0.064-2.741,0.049-3.293,0.107
		c-4.943,2.599-9.884,5.198-14.826,7.799c-1.504,0.12-3.009,0.24-4.513,0.361c1.41,0.126,2.819,0.254,4.23,0.381
		c0.778,0.043,1.557,0.087,2.336,0.128C101.323,191.113,106.678,188.188,112.033,185.261"/>
	<path fill-rule="evenodd" clip-rule="evenodd" fill="#004B85" d="M99.167,183.74c-0.515,0.058-2.495,0.045-2.999,0.098
		c-4.5,2.365-8.999,4.733-13.498,7.099c-1.369,0.109-2.738,0.219-4.109,0.33c1.284,0.114,2.567,0.229,3.852,0.345
		c0.709,0.042,1.418,0.081,2.126,0.119C89.416,189.067,94.291,186.405,99.167,183.74"/>
	<path fill-rule="evenodd" clip-rule="evenodd" fill="#004B85" d="M86.944,182.324c-0.464,0.053-2.25,0.04-2.704,0.087
		l-12.169,6.403l-3.705,0.295l3.472,0.312l1.917,0.107L86.944,182.324z"/>
	<path fill-rule="evenodd" clip-rule="evenodd" fill="#004B85" d="M251.817,40.188c-0.042-1.981-0.083-3.964-0.128-5.951
		c0.474,0.222,0.941,0.443,1.408,0.664c0.046,1.975,0.087,3.947,0.133,5.919C252.762,40.61,252.291,40.4,251.817,40.188"/>
	<path fill-rule="evenodd" clip-rule="evenodd" fill="#004B85" d="M243.942,33.798c0.426-0.121,0.854-0.244,1.278-0.364
		c0.816,2.112,1.63,4.221,2.444,6.317c-0.421,0.128-0.838,0.26-1.257,0.389C245.589,38.037,244.767,35.923,243.942,33.798
		L243.942,33.798z"/>
	<path fill-rule="evenodd" clip-rule="evenodd" fill="#004B85" d="M238.241,39.283c0.25-0.459,0.503-0.917,0.754-1.379
		c1.44,1.662,2.865,3.303,4.284,4.925c-0.245,0.459-0.487,0.916-0.731,1.372C241.125,42.582,239.689,40.938,238.241,39.283"/>
	<path fill-rule="evenodd" clip-rule="evenodd" fill="#004B85" d="M236.475,49.425c-0.011-0.669-0.021-1.341-0.033-2.012
		c1.674,0.665,3.334,1.326,4.976,1.976c0.013,0.66,0.024,1.319,0.036,1.98C239.81,50.73,238.15,50.08,236.475,49.425"/>
	<path fill-rule="evenodd" clip-rule="evenodd" fill="#004B85" d="M238.488,59.165c1.422-0.538,2.831-1.079,4.226-1.609
		c0.266,0.669,0.533,1.333,0.795,1.996c-1.385,0.54-2.782,1.085-4.2,1.636C239.036,60.517,238.763,59.844,238.488,59.165"/>
	<path fill-rule="evenodd" clip-rule="evenodd" fill="#004B85" d="M244.482,69.498c0.766-1.547,1.53-3.082,2.283-4.613
		c0.436,0.475,0.87,0.95,1.308,1.425c-0.747,1.523-1.5,3.057-2.258,4.604C245.373,70.447,244.929,69.971,244.482,69.498"/>
	<path fill-rule="evenodd" clip-rule="evenodd" fill="#004B85" d="M252.448,75.403c-0.045-2.037-0.088-4.07-0.136-6.107
		c0.482,0.16,0.954,0.32,1.43,0.48c0.041,2.026,0.09,4.049,0.136,6.075C253.403,75.702,252.926,75.552,252.448,75.403"/>
	<path fill-rule="evenodd" clip-rule="evenodd" fill="#004B85" d="M257.759,69.722c0.388-0.179,0.771-0.354,1.16-0.532
		c0.758,1.963,1.516,3.915,2.267,5.854c-0.384,0.179-0.764,0.365-1.144,0.552C259.28,73.649,258.522,71.694,257.759,69.722"/>
	<path fill-rule="evenodd" clip-rule="evenodd" fill="#004B85" d="M261.697,66.296c0.212-0.448,0.416-0.901,0.62-1.355
		c1.228,1.412,2.443,2.808,3.646,4.19c-0.199,0.453-0.397,0.903-0.597,1.354C264.149,69.104,262.931,67.708,261.697,66.296"/>
	<path fill-rule="evenodd" clip-rule="evenodd" fill="#004B85" d="M263.232,60.036c-0.015-0.609-0.032-1.218-0.047-1.826
		c1.369,0.54,2.726,1.083,4.075,1.614c0.011,0.597,0.029,1.197,0.046,1.796C265.959,61.097,264.602,60.567,263.232,60.036"/>
	<path fill-rule="evenodd" clip-rule="evenodd" fill="#004B85" d="M261.36,50.657c1.178-0.445,2.341-0.892,3.496-1.333
		c0.229,0.613,0.456,1.224,0.681,1.832c-1.145,0.446-2.307,0.905-3.475,1.359C261.829,51.899,261.596,51.279,261.36,50.657"/>
	<path fill-rule="evenodd" clip-rule="evenodd" fill="#004B85" d="M257.26,44.086c0.675-1.364,1.348-2.719,2.019-4.066
		c0.389,0.481,0.78,0.962,1.167,1.44c-0.657,1.346-1.316,2.704-1.987,4.066C258.058,45.048,257.658,44.569,257.26,44.086"/>
	<path fill-rule="evenodd" clip-rule="evenodd" fill="#004B85" d="M252.97,56.825c-0.065-0.024-0.129-0.057-0.195-0.096
		c-0.722-0.42-1.235-1.515-1.145-2.43c0.005-0.061,0.016-0.121,0.026-0.179c-1.85-3.007-3.719-6.053-5.613-9.142
		c-0.012-0.018-0.02-0.039-0.027-0.061c-0.172-0.588-0.348-1.18-0.525-1.778c-0.036-0.124,0.049-0.21,0.142-0.127
		c0.417,0.356,0.835,0.71,1.254,1.063c0.016,0.012,0.03,0.03,0.044,0.052c1.878,3.079,3.739,6.123,5.573,9.124
		c0.124-0.004,0.257,0.022,0.385,0.074c0.065,0.024,0.13,0.059,0.199,0.098c0.342,0.206,0.649,0.573,0.865,1.026
		c0.211,0.457,0.309,0.948,0.268,1.391C254.146,56.644,253.609,57.073,252.97,56.825z"/>
	<path fill-rule="evenodd" clip-rule="evenodd" fill="#004B85" d="M252.843,56.257c-0.051-0.027-0.102-0.059-0.15-0.094
		c-0.527-0.383-0.86-1.221-0.743-1.869c0.104-0.582,0.545-0.823,1.021-0.568c0.05,0.026,0.1,0.055,0.148,0.091
		c0.155,0.114,0.3,0.277,0.423,0.468c1.764,0.065,3.511,0.134,5.223,0.198c1.696,0.063,3.365,0.131,5.012,0.193
		c0.256,0.011,0.526,0.331,0.604,0.717c0.081,0.39-0.064,0.693-0.317,0.684c-1.644-0.047-3.317-0.103-5.005-0.156
		c-1.713-0.055-3.454-0.114-5.214-0.168C253.717,56.276,253.296,56.49,252.843,56.257L252.843,56.257z"/>
</g>
</svg>
