<?xml version="1.0" encoding="UTF-8" standalone="no"?>
<!-- Created with Inkscape (http://www.inkscape.org/) -->

<svg
   xmlns:dc="http://purl.org/dc/elements/1.1/"
   xmlns:cc="http://creativecommons.org/ns#"
   xmlns:rdf="http://www.w3.org/1999/02/22-rdf-syntax-ns#"
   xmlns:svg="http://www.w3.org/2000/svg"
   xmlns="http://www.w3.org/2000/svg"
   xmlns:sodipodi="http://sodipodi.sourceforge.net/DTD/sodipodi-0.dtd"
   xmlns:inkscape="http://www.inkscape.org/namespaces/inkscape"
   width="1000.0007"
   height="659.99762"
   id="svg7292"
   version="1.1"
   inkscape:version="0.48.5 r10040"
   sodipodi:docname="Trako logo.svg">
  <defs
     id="defs7294">
    <clipPath
       id="clipPath11182"
       clipPathUnits="userSpaceOnUse">
      <path
         id="path11184"
         d="m 0,841.89 595.275,0 L 595.275,0 0,0 0,841.89 z"
         inkscape:connector-curvature="0" />
    </clipPath>
    <clipPath
       id="clipPath10590"
       clipPathUnits="userSpaceOnUse">
      <path
         id="path10592"
         d="m 0,841.89 595.275,0 L 595.275,0 0,0 0,841.89 z"
         inkscape:connector-curvature="0" />
    </clipPath>
    <clipPath
       id="clipPath3300"
       clipPathUnits="userSpaceOnUse">
      <path
         id="path3302"
         d="m 0,841.89 595.275,0 L 595.275,0 0,0 0,841.89 z"
         inkscape:connector-curvature="0" />
    </clipPath>
    <clipPath
       id="clipPath3248"
       clipPathUnits="userSpaceOnUse">
      <path
         id="path3250"
         d="m 0,841.89 595.275,0 L 595.275,0 0,0 0,841.89 z"
         inkscape:connector-curvature="0" />
    </clipPath>
    <clipPath
       id="clipPath3248-2"
       clipPathUnits="userSpaceOnUse">
      <path
         inkscape:connector-curvature="0"
         id="path3250-1"
         d="m 0,841.89 595.275,0 L 595.275,0 0,0 0,841.89 z" />
    </clipPath>
  </defs>
  <sodipodi:namedview
     id="base"
     pagecolor="#ffffff"
     bordercolor="#666666"
     borderopacity="1.0"
     inkscape:pageopacity="0.0"
     inkscape:pageshadow="2"
     inkscape:zoom="0.5"
     inkscape:cx="351.02479"
     inkscape:cy="390.32703"
     inkscape:document-units="px"
     inkscape:current-layer="layer1"
     showgrid="false"
     inkscape:window-width="1366"
     inkscape:window-height="716"
     inkscape:window-x="-8"
     inkscape:window-y="-8"
     inkscape:window-maximized="1"
     showguides="false"
     inkscape:guide-bbox="true"
     inkscape:snap-global="false"
     inkscape:snap-page="true"
     fit-margin-top="28.85"
     fit-margin-left="30"
     fit-margin-right="30"
     fit-margin-bottom="28.85">
    <sodipodi:guide
       orientation="0,1"
       position="16.705426,489.99869"
       id="guide8355" />
    <sodipodi:guide
       orientation="0,1"
       position="16.705426,468.74869"
       id="guide8540" />
    <sodipodi:guide
       orientation="0,1"
       position="16.705426,516.99869"
       id="guide3996" />
    <sodipodi:guide
       orientation="0,1"
       position="16.705426,607.99869"
       id="guide3998" />
    <sodipodi:guide
       orientation="1,0"
       position="103.70543,459.99869"
       id="guide4000" />
    <sodipodi:guide
       orientation="1,0"
       position="224.20544,459.99875"
       id="guide6833" />
  </sodipodi:namedview>
  <metadata
     id="metadata7297">
    <rdf:RDF>
      <cc:Work
         rdf:about="">
        <dc:format>image/svg+xml</dc:format>
        <dc:type
           rdf:resource="http://purl.org/dc/dcmitype/StillImage" />
        <dc:title />
      </cc:Work>
    </rdf:RDF>
  </metadata>
  <g
     inkscape:label="Layer 1"
     inkscape:groupmode="layer"
     id="layer1"
     transform="translate(16.705426,-852.36336)">
    <g
       id="g3252"
       transform="matrix(28.06475,0,0,-28.06475,725.89226,1410.2485)"
       style="fill:#000000" />
    <g
       id="g3256"
       transform="matrix(28.06475,0,0,-28.06475,36.840899,1459.9927)"
       style="fill:#000000">
      <path
         id="path3258"
         style="fill:#000000;fill-opacity:1;fill-rule:nonzero;stroke:none"
         d="m -6.5736491e-7,9.772767e-4 31.81597465736491,0 0,3.8584945233 c 0,8.7952452 -7.138994,15.9485772 -15.915987,15.9485772 C 7.1329938,19.808049 -6.5736491e-7,12.654717 -6.5736491e-7,3.8594718 l 0,-3.8584945233 z M 32.654974,-0.838 l -33.493974,0 0,4.6974718 c 0,9.2567832 7.5099941,16.7885562 16.738987,16.7885562 9.238993,0 16.754987,-7.531773 16.754987,-16.7885562 l 0,-4.6974718 z M 24.55218,1.775524 c 0.603,0.030035 0.648,0.9370916 -0.047,0.8750193 -2.278998,-0.015017 -4.377996,0.047055 -6.172995,0.2422822 -2.762998,0.2723172 -5.420996,0.6197219 -7.986994,0.9671266 -2.4759976,0.3323872 -4.8599958,0.6497568 -7.1719939,0.922074 l 0,-0.1051224 C 6.2681946,4.2083579 9.590192,3.4815113 13.063189,2.8928255 16.716186,2.2580862 20.551183,1.7444879 24.55218,1.775524 m 3.787997,3.5821727 c 0.756,0.044051 0.711,1.102284 0,1.012179 C 26.741178,6.3088046 25.30618,6.262751 23.993181,6.2337171 22.694182,6.1886647 21.502182,6.1586297 20.399183,6.1275935 17.200186,6.0364874 14.074188,5.9313649 11.100191,5.8262425 8.2461931,5.7191177 5.4991952,5.6149964 2.8871973,5.4938553 l 0,-0.1071248 c 2.9889976,0.090105 6.0529952,0.015018 9.2389927,-0.075087 3.321997,-0.091106 6.778995,-0.1812111 10.370992,-0.1061236 1.691998,0.031036 3.638997,0.076089 5.842995,0.1521772 M 18.709185,15.560582 c 0.437999,0.119139 0.421999,0.890037 0,0.768895 -0.604,-0.05907 -0.982,-0.181211 -1.614999,-0.407474 C 14.588188,15.030965 12.14219,13.836574 9.8011919,12.59713 7.5361936,11.401737 5.3621953,10.19333 3.280197,9.2262029 l 0,-0.1211411 c 2.1129983,0.9380932 4.2419966,2.0263602 6.4449949,3.0825912 2.2959981,1.09027 4.6809961,2.178537 7.2469941,3.023522 0.65,0.211246 1.011999,0.332387 1.736999,0.349407 m -0.377,-1.165358 c 0.422,0.122143 0.422,0.756882 0,0.65176 C 15.509187,14.440277 12.821189,13.307958 10.239191,12.08253 7.7631935,10.903157 5.3931953,9.6486951 3.1431971,8.6975872 l 0,-0.1061237 c 2.3109982,0.9220741 4.6199964,1.9953245 7.0649939,3.0225215 2.521998,1.07325 5.178996,2.087431 8.123994,2.781239 m 1.402999,-0.966125 c 0.438,0.05907 0.483,0.800933 0,0.709827 -3.109998,-0.63474 -6.098995,-1.648921 -8.936993,-2.766222 C 8.0811932,10.31347 5.4851952,9.1661329 3.0081972,8.2130227 l 0,-0.089104 c 2.534998,0.8600018 5.086996,1.8281295 7.7589938,2.7341851 2.777998,0.952109 5.721995,1.860167 8.967993,2.570995 m 1.600999,-1.15034 c 0.527999,0.107125 0.527999,0.817953 0,0.756882 C 17.681185,12.47699 14.406188,11.567931 11.34119,10.586788 8.383193,9.6486951 5.6191951,8.6214985 2.8871973,7.7164443 l 0,-0.1071248 c 2.7169979,0.8469866 5.5559956,1.7380245 8.5299927,2.5389575 3.109998,0.845986 6.399995,1.602867 9.918993,2.130482 m 1.750998,-1.208408 c 0.528,0.0901 0.559,0.862004 0,0.815951 C 19.297184,11.46381 15.675187,10.662877 12.23219,9.7858548 8.9551925,8.9388682 5.830195,8.0167941 2.8871973,7.2458962 l 0,-0.090105 C 5.830195,7.8646169 8.9261925,8.606481 12.18719,9.2712554 15.614187,9.9810822 19.222184,10.616823 23.087181,11.070351 M 24.97418,9.8459248 c 0.587999,0.045052 0.587999,0.9210732 0,0.9070572 C 22.287182,10.556753 20.189184,10.223365 18.452185,9.9360298 15.614187,9.4534676 12.866189,8.8787982 10.239191,8.3041288 7.6881935,7.7755131 5.2421954,7.2458962 2.8871973,6.8394227 l 0,-0.1071248 c 2.3999981,0.4385108 4.8309962,0.8479878 7.3519937,1.2384426 2.611998,0.4244945 5.314996,0.8329703 8.182994,1.2864986 1.795999,0.271316 3.895997,0.4224921 6.551995,0.5886857 m 2.414998,-1.343565 c 0.648999,0.044051 0.709999,1.0412128 0.077,0.9811428 C 25.985179,9.4364478 24.61218,9.347344 23.344181,9.2572391 22.106182,9.1661329 20.958183,9.045993 19.917184,8.9248519 16.821186,8.5464111 13.787189,8.0928828 10.888191,7.6383533 8.1111932,7.2018449 5.4381953,6.7613317 2.8871973,6.4139271 l 0,-0.1211412 c 2.6559979,0.3634234 5.3589958,0.6667767 8.1679937,0.9531103 2.912997,0.2873347 5.932995,0.5746694 9.133993,0.8920391 2.005998,0.211246 4.392996,0.3323871 7.199994,0.3644245 m 1.131999,-1.4977447 c 0.53,0.045053 0.695999,0.9220741 0,0.9220741 -1.523999,0 -3.002998,-0.044051 -4.375997,-0.1221423 C 22.801181,7.7454781 21.547182,7.654372 20.445183,7.5632659 17.244186,7.3059661 14.119188,7.0346501 11.114191,6.7613317 8.2461931,6.4910169 5.4991952,6.2036822 2.8871973,5.90133 l 0,-0.1061237 c 2.8079978,0.2412811 5.7059955,0.4084759 8.7109927,0.5446345 3.139998,0.1511761 6.401995,0.2863335 9.843993,0.4545294 2.022998,0.089104 4.346996,0.1501749 7.078994,0.2102449 M 27.103178,3.347355 c 0.633,0.045053 0.74,1.0412128 0,0.982144 C 24.35518,4.1322693 21.894182,4.1172518 19.811184,4.1482879 16.746186,4.1923393 13.817189,4.4206051 10.993191,4.660885 8.291193,4.8881498 5.6801951,5.130432 3.1731971,5.2055195 l 0,-0.1051225 C 5.9511949,4.8130623 9.0921924,4.3885678 12.30819,4.0121293 c 3.350997,-0.3944594 6.792994,-0.740863 9.917992,-0.8469866 1.419999,-0.045052 3.109997,-0.015017 4.876996,0.1822123"
         inkscape:connector-curvature="0" />
    </g>
  </g>
</svg>
